<svg width="1233" height="1233" viewBox="0 0 1233 1233" fill="none" xmlns="http://www.w3.org/2000/svg">
<g filter="url(#filter0_d_202_2)">
<circle cx="614.461" cy="616.664" r="439.96" fill="#000115"/>
<circle cx="614.461" cy="616.664" r="439.96" fill="url(#paint0_radial_202_2)" fill-opacity="0.45"/>
<circle cx="614.461" cy="616.664" r="439.96" fill="url(#paint1_radial_202_2)" fill-opacity="0.8"/>
<circle cx="614.461" cy="616.664" r="439.96" fill="url(#paint2_radial_202_2)" fill-opacity="0.6"/>
<circle cx="614.461" cy="616.664" r="439.96" fill="url(#paint3_radial_202_2)" fill-opacity="0.5"/>
<path d="M290.897 734.736C293.137 740.197 294.994 745.266 295.868 749.733C307.261 808.006 363.884 845.55 432.487 873.878C504.847 903.758 624.367 949.38 697.287 886.01C738.597 850.11 749.273 768.002 740.603 688.276C732.705 615.652 709.225 545.361 668.977 506.785C658.893 497.12 645.482 486.787 629.565 477.716C532.581 431.59 451.825 444.255 372.731 534.484C293.636 624.713 287.511 649.043 290.897 734.736Z" fill="url(#paint4_linear_202_2)" fill-opacity="0.7"/>
<path d="M290.897 734.736C293.137 740.197 294.994 745.266 295.868 749.733C307.261 808.006 363.884 845.55 432.487 873.878C504.847 903.758 624.367 949.38 697.287 886.01C738.597 850.11 749.273 768.002 740.603 688.276C732.705 615.652 709.225 545.361 668.977 506.785C658.893 497.12 645.482 486.787 629.565 477.716C532.581 431.59 451.825 444.255 372.731 534.484C293.636 624.713 287.511 649.043 290.897 734.736Z" fill="url(#paint5_linear_202_2)" fill-opacity="0.2"/>
<path d="M503.593 780.27C588.248 875.979 764.307 908.421 873.232 843.361C982.157 778.301 1007.11 686.31 1003.12 609.902C999.125 533.494 950.504 378.514 778.917 372.878C607.331 367.242 535.045 456.853 453.561 550.614C422.075 586.843 418.939 684.562 503.593 780.27Z" fill="url(#paint6_linear_202_2)"/>
<path d="M264.675 619.166C283.734 446.358 363.899 287.553 457.424 301.058C524.204 310.702 445.204 445.629 697.284 571.333C701.989 573.678 706.545 576.723 710.608 580.059C814.398 665.292 967.486 639.121 956.741 713.53C936.865 851.178 709.27 925.714 524.838 819.089C390.27 741.291 245.616 791.974 264.675 619.166Z" fill="url(#paint7_linear_202_2)"/>
<path d="M400.664 745.472C406.719 749.198 412.126 752.823 416.167 756.59C468.874 805.717 549.673 800.504 635.237 777.214C725.486 752.647 871.872 708.378 895.639 591.143C909.104 524.727 860.244 435.512 794.708 363.125C735.009 297.186 662.177 245.212 596.2 237.154C579.669 235.135 559.497 234.944 537.851 237.877C412.521 264.789 344.867 337.724 334.533 486.151C324.2 634.577 335.863 663.229 400.664 745.472Z" fill="url(#paint8_linear_202_2)" fill-opacity="0.7"/>
<path d="M400.664 745.472C406.719 749.198 412.126 752.823 416.167 756.59C468.874 805.717 549.673 800.504 635.237 777.214C725.486 752.647 871.872 708.378 895.639 591.143C909.104 524.727 860.244 435.512 794.708 363.125C735.009 297.186 662.177 245.212 596.2 237.154C579.669 235.135 559.497 234.944 537.851 237.877C412.521 264.789 344.867 337.724 334.533 486.151C324.2 634.577 335.863 663.229 400.664 745.472Z" fill="url(#paint9_linear_202_2)" fill-opacity="0.2"/>
<path d="M293.988 765.833C281.186 795.834 304.221 810.137 317.339 813.538C335.054 816.335 380.769 815.804 421.913 791.304C463.056 766.804 483.985 704.423 494.351 674.803C446.563 688.692 361.802 716.897 315.433 742.781C298.91 752.005 297.352 757.951 293.988 765.833Z" fill="url(#paint10_linear_202_2)" fill-opacity="0.64"/>
<path d="M627.923 629.177C741.143 586.756 785.836 567.833 820.387 552.602C865.839 532.565 952.234 485.306 912.201 410.189C880.175 350.096 799.544 419.387 758.731 450.341C675.654 513.349 538.575 600.851 478.175 635.838C421.542 668.643 341.31 722.634 315.433 742.781C361.802 716.897 446.563 688.692 494.351 674.803L627.923 629.177Z" fill="url(#paint11_linear_202_2)" fill-opacity="0.64"/>
<path d="M571.169 541.861C644.896 597.665 793.795 718.371 823.247 744.199C861.99 778.174 933.843 849.607 881.601 888.973C839.807 920.466 777.667 834.987 745.408 794.797C679.744 712.988 572.336 583.352 516.869 532.34C461.402 481.327 406.832 416.831 386.481 390.959C424.944 429.687 498.985 486.203 541.122 516.563L571.169 541.861Z" fill="url(#paint12_linear_202_2)" fill-opacity="0.68"/>
<path d="M370.857 364.772C364.701 337.008 389.113 335.958 402.089 338.904C419.261 344.224 462.062 363.74 495.891 399.247C529.72 434.754 537.178 490.104 541.122 516.563C498.985 486.203 424.944 429.687 386.481 390.959C372.775 377.16 372.474 372.066 370.857 364.772Z" fill="url(#paint13_linear_202_2)" fill-opacity="0.64"/>
<g opacity="0.5">
<path d="M967.314 351.077C1113.76 544.971 1075.29 820.87 881.396 967.314C687.502 1113.76 411.603 1075.29 265.16 881.396C118.716 687.501 157.183 411.602 351.077 265.159C544.972 118.715 820.871 157.182 967.314 351.077Z" fill="black" fill-opacity="0.1"/>
<path d="M967.314 351.077C1113.76 544.971 1075.29 820.87 881.396 967.314C687.502 1113.76 411.603 1075.29 265.16 881.396C118.716 687.501 157.183 411.602 351.077 265.159C544.972 118.715 820.871 157.182 967.314 351.077Z" fill="url(#paint14_radial_202_2)" fill-opacity="0.8"/>
<path d="M967.314 351.077C1113.76 544.971 1075.29 820.87 881.396 967.314C687.502 1113.76 411.603 1075.29 265.16 881.396C118.716 687.501 157.183 411.602 351.077 265.159C544.972 118.715 820.871 157.182 967.314 351.077Z" fill="url(#paint15_radial_202_2)" fill-opacity="0.7"/>
</g>
<g filter="url(#filter1_f_202_2)">
<circle cx="621.298" cy="634.001" r="199.675" fill="white"/>
</g>
<g filter="url(#filter2_f_202_2)">
<circle cx="616.072" cy="616.599" r="101.095" fill="white"/>
</g>
</g>
<defs>
<filter id="filter0_d_202_2" x="-4" y="0" width="1240.47" height="1240.47" filterUnits="userSpaceOnUse" color-interpolation-filters="sRGB">
<feFlood flood-opacity="0" result="BackgroundImageFix"/>
<feColorMatrix in="SourceAlpha" type="matrix" values="0 0 0 0 0 0 0 0 0 0 0 0 0 0 0 0 0 0 127 0" result="hardAlpha"/>
<feOffset dy="4"/>
<feGaussianBlur stdDeviation="2"/>
<feComposite in2="hardAlpha" operator="out"/>
<feColorMatrix type="matrix" values="0 0 0 0 0 0 0 0 0 0 0 0 0 0 0 0 0 0 0.25 0"/>
<feBlend mode="normal" in2="BackgroundImageFix" result="effect1_dropShadow_202_2"/>
<feBlend mode="normal" in="SourceGraphic" in2="effect1_dropShadow_202_2" result="shape"/>
</filter>
<filter id="filter1_f_202_2" x="188.518" y="201.221" width="865.56" height="865.56" filterUnits="userSpaceOnUse" color-interpolation-filters="sRGB">
<feFlood flood-opacity="0" result="BackgroundImageFix"/>
<feBlend mode="normal" in="SourceGraphic" in2="BackgroundImageFix" result="shape"/>
<feGaussianBlur stdDeviation="116.552" result="effect1_foregroundBlur_202_2"/>
</filter>
<filter id="filter2_f_202_2" x="462.528" y="463.055" width="307.088" height="307.088" filterUnits="userSpaceOnUse" color-interpolation-filters="sRGB">
<feFlood flood-opacity="0" result="BackgroundImageFix"/>
<feBlend mode="normal" in="SourceGraphic" in2="BackgroundImageFix" result="shape"/>
<feGaussianBlur stdDeviation="26.2243" result="effect1_foregroundBlur_202_2"/>
</filter>
<radialGradient id="paint0_radial_202_2" cx="0" cy="0" r="1" gradientUnits="userSpaceOnUse" gradientTransform="translate(279.853 950.866) rotate(13.9168) scale(672.062 481.647)">
<stop stop-color="#F7003F"/>
<stop offset="1" stop-color="#E63663" stop-opacity="0"/>
</radialGradient>
<radialGradient id="paint1_radial_202_2" cx="0" cy="0" r="1" gradientUnits="userSpaceOnUse" gradientTransform="translate(293.44 302.097) rotate(118.559) scale(425.16)">
<stop stop-color="#006679"/>
<stop offset="1" stop-color="#006679" stop-opacity="0"/>
</radialGradient>
<radialGradient id="paint2_radial_202_2" cx="0" cy="0" r="1" gradientUnits="userSpaceOnUse" gradientTransform="translate(871.116 354.683) rotate(47.0327) scale(307.75)">
<stop stop-color="#3D2960"/>
<stop offset="1" stop-color="#3D2960" stop-opacity="0"/>
</radialGradient>
<radialGradient id="paint3_radial_202_2" cx="0" cy="0" r="1" gradientUnits="userSpaceOnUse" gradientTransform="translate(1054.42 750.589) rotate(130.315) scale(401.361)">
<stop stop-color="#447AA5"/>
<stop offset="1" stop-color="#447AA5" stop-opacity="0"/>
</radialGradient>
<linearGradient id="paint4_linear_202_2" x1="632.444" y1="580.429" x2="457.958" y2="892.013" gradientUnits="userSpaceOnUse">
<stop stop-color="#FF0061" stop-opacity="0"/>
<stop offset="0.0461083" stop-color="#FF0061" stop-opacity="0.01"/>
<stop offset="0.0868148" stop-color="#FF0061" stop-opacity="0.0137989"/>
<stop offset="0.124044" stop-color="#FF0061" stop-opacity="0.0317363"/>
<stop offset="0.15972" stop-color="#FF0061" stop-opacity="0.0576443"/>
<stop offset="0.195767" stop-color="#FF0061" stop-opacity="0.0919821"/>
<stop offset="0.23411" stop-color="#FF0161" stop-opacity="0.135209"/>
<stop offset="0.276672" stop-color="#FF0161" stop-opacity="0.187783"/>
<stop offset="0.325379" stop-color="#FF0161" stop-opacity="0.250165"/>
<stop offset="0.382154" stop-color="#FF0262" stop-opacity="0.322813"/>
<stop offset="0.448921" stop-color="#FF0262" stop-opacity="0.406186"/>
<stop offset="0.527606" stop-color="#FF0362" stop-opacity="0.500744"/>
<stop offset="0.620132" stop-color="#FF0363" stop-opacity="0.606945"/>
<stop offset="0.728423" stop-color="#FF0463" stop-opacity="0.725249"/>
<stop offset="0.854405" stop-color="#FF0563" stop-opacity="0.856114"/>
<stop offset="1" stop-color="#FF0564"/>
</linearGradient>
<linearGradient id="paint5_linear_202_2" x1="739.435" y1="801.26" x2="724.747" y2="798.805" gradientUnits="userSpaceOnUse">
<stop stop-color="white"/>
<stop offset="1" stop-color="white" stop-opacity="0"/>
</linearGradient>
<linearGradient id="paint6_linear_202_2" x1="1010.74" y1="555.105" x2="633.211" y2="625.666" gradientUnits="userSpaceOnUse">
<stop stop-color="#AEDCFF"/>
<stop offset="0.042963" stop-color="#5BAEEC" stop-opacity="0.994781"/>
<stop offset="0.077037" stop-color="#5BAEEC" stop-opacity="0.983153"/>
<stop offset="0.105055" stop-color="#5BAEEC" stop-opacity="0.964571"/>
<stop offset="0.129849" stop-color="#5BAEEC" stop-opacity="0.938488"/>
<stop offset="0.154253" stop-color="#5BAEEC" stop-opacity="0.904355"/>
<stop offset="0.181099" stop-color="#5BAEEC" stop-opacity="0.861626"/>
<stop offset="0.213219" stop-color="#5BAEEC" stop-opacity="0.809755"/>
<stop offset="0.253447" stop-color="#5BAEEC" stop-opacity="0.748194"/>
<stop offset="0.304615" stop-color="#5BAEEC" stop-opacity="0.676396"/>
<stop offset="0.369556" stop-color="#5BAEEC" stop-opacity="0.593814"/>
<stop offset="0.451103" stop-color="#5BAEEC" stop-opacity="0.499901"/>
<stop offset="0.552088" stop-color="#5BAEEC" stop-opacity="0.39411"/>
<stop offset="0.675344" stop-color="#5BAEEC" stop-opacity="0.275894"/>
<stop offset="0.823704" stop-color="#5BAEEC" stop-opacity="0.144707"/>
<stop offset="1" stop-color="#5BAEEC" stop-opacity="0"/>
</linearGradient>
<linearGradient id="paint7_linear_202_2" x1="376.763" y1="702.11" x2="473.449" y2="330.489" gradientUnits="userSpaceOnUse">
<stop stop-color="#18D0B1" stop-opacity="0"/>
<stop offset="0.0548604" stop-color="#18D0B1" stop-opacity="0.01"/>
<stop offset="0.0983704" stop-color="#18D0B1" stop-opacity="0.0132741"/>
<stop offset="0.133538" stop-color="#18D0B1" stop-opacity="0.0300308"/>
<stop offset="0.163373" stop-color="#18D0B1" stop-opacity="0.0536798"/>
<stop offset="0.190883" stop-color="#18D0B1" stop-opacity="0.0843305"/>
<stop offset="0.219077" stop-color="#18D0B1" stop-opacity="0.122092"/>
<stop offset="0.250963" stop-color="#18D0B1" stop-opacity="0.167075"/>
<stop offset="0.28955" stop-color="#18D0B1" stop-opacity="0.219387"/>
<stop offset="0.337846" stop-color="#18D0B1" stop-opacity="0.279138"/>
<stop offset="0.39886" stop-color="#18D0B1" stop-opacity="0.346439"/>
<stop offset="0.475601" stop-color="#17D0B1" stop-opacity="0.421397"/>
<stop offset="0.571077" stop-color="#17D0B1" stop-opacity="0.504123"/>
<stop offset="0.688296" stop-color="#17D0B1" stop-opacity="0.594726"/>
<stop offset="0.830268" stop-color="#17D0B1" stop-opacity="0.693315"/>
<stop offset="1" stop-color="#17D0B1" stop-opacity="0.8"/>
</linearGradient>
<linearGradient id="paint8_linear_202_2" x1="599.746" y1="567.688" x2="804.171" y2="457.589" gradientUnits="userSpaceOnUse">
<stop stop-color="#4ABBFF" stop-opacity="0"/>
<stop offset="0.0379715" stop-color="#4ABBFF" stop-opacity="0.03"/>
<stop offset="0.077545" stop-color="#4ABBFF" stop-opacity="0.060455"/>
<stop offset="0.119297" stop-color="#4ABAFF" stop-opacity="0.0746374"/>
<stop offset="0.163803" stop-color="#49B9FE" stop-opacity="0.0957794"/>
<stop offset="0.21164" stop-color="#49B7FE" stop-opacity="0.124624"/>
<stop offset="0.263385" stop-color="#49B6FD" stop-opacity="0.161912"/>
<stop offset="0.319613" stop-color="#48B3FC" stop-opacity="0.208387"/>
<stop offset="0.3809" stop-color="#47B1FB" stop-opacity="0.264792"/>
<stop offset="0.447824" stop-color="#46AEFA" stop-opacity="0.331868"/>
<stop offset="0.520961" stop-color="#45AAF9" stop-opacity="0.410358"/>
<stop offset="0.600886" stop-color="#44A6F7" stop-opacity="0.501004"/>
<stop offset="0.688176" stop-color="#43A1F5" stop-opacity="0.604549"/>
<stop offset="0.783407" stop-color="#429BF3" stop-opacity="0.721735"/>
<stop offset="0.887157" stop-color="#4095F1" stop-opacity="0.853305"/>
<stop offset="1" stop-color="#3E8EEE"/>
</linearGradient>
<linearGradient id="paint9_linear_202_2" x1="705.549" y1="749.369" x2="696.702" y2="732.126" gradientUnits="userSpaceOnUse">
<stop stop-color="white" stop-opacity="0.5"/>
<stop offset="1" stop-color="white" stop-opacity="0"/>
</linearGradient>
<linearGradient id="paint10_linear_202_2" x1="525.731" y1="649.338" x2="354.188" y2="940.472" gradientUnits="userSpaceOnUse">
<stop stop-color="#FF5E5E"/>
<stop offset="1" stop-color="#D9D9D9" stop-opacity="0"/>
</linearGradient>
<linearGradient id="paint11_linear_202_2" x1="731.324" y1="646.193" x2="679.239" y2="521.939" gradientUnits="userSpaceOnUse">
<stop stop-color="#FF5E5E"/>
<stop offset="1" stop-color="#D9D9D9" stop-opacity="0"/>
</linearGradient>
<linearGradient id="paint12_linear_202_2" x1="540.52" y1="542.272" x2="599.13" y2="950.056" gradientUnits="userSpaceOnUse">
<stop stop-color="#92FF6C"/>
<stop offset="1" stop-color="#D9D9D9" stop-opacity="0"/>
</linearGradient>
<linearGradient id="paint13_linear_202_2" x1="368.434" y1="290.297" x2="427.413" y2="649.358" gradientUnits="userSpaceOnUse">
<stop stop-color="#339EB5"/>
<stop offset="1" stop-color="#3FB4CD" stop-opacity="0"/>
</linearGradient>
<radialGradient id="paint14_radial_202_2" cx="0" cy="0" r="1" gradientUnits="userSpaceOnUse" gradientTransform="translate(1174.4 363.819) rotate(-30.8467) scale(385.583)">
<stop stop-color="white"/>
<stop offset="1" stop-color="white" stop-opacity="0"/>
<stop offset="1" stop-color="white"/>
</radialGradient>
<radialGradient id="paint15_radial_202_2" cx="0" cy="0" r="1" gradientUnits="userSpaceOnUse" gradientTransform="translate(85.5019 140.826) rotate(77.1681) scale(482.204)">
<stop stop-color="white"/>
<stop offset="1" stop-color="white" stop-opacity="0"/>
</radialGradient>
</defs>
</svg>
