<svg width="4860" height="4859" viewBox="0 0 4860 4859" fill="none" xmlns="http://www.w3.org/2000/svg">
<circle cx="2423.44" cy="2431.17" r="1734.5" fill="#000115"/>
<circle cx="2423.44" cy="2431.17" r="1734.5" fill="url(#paint0_radial_3_6)" fill-opacity="0.45"/>
<circle cx="2423.44" cy="2431.17" r="1734.5" fill="url(#paint1_radial_3_6)" fill-opacity="0.8"/>
<circle cx="2423.44" cy="2431.17" r="1734.5" fill="url(#paint2_radial_3_6)" fill-opacity="0.6"/>
<circle cx="2423.44" cy="2431.17" r="1734.5" fill="url(#paint3_radial_3_6)" fill-opacity="0.5"/>
<path d="M1147.81 2896.65C1156.65 2918.18 1163.97 2938.16 1167.41 2955.78C1212.33 3185.51 1435.56 3333.53 1706.02 3445.21C1991.3 3563.01 2462.49 3742.86 2749.97 3493.04C2912.83 3351.5 2954.92 3027.8 2920.74 2713.49C2889.6 2427.18 2797.03 2150.06 2638.36 1997.98C2598.6 1959.87 2545.73 1919.14 2482.98 1883.38C2100.63 1701.53 1782.26 1751.46 1470.44 2107.18C1158.62 2462.9 1134.47 2558.82 1147.81 2896.65Z" fill="url(#paint4_linear_3_6)" fill-opacity="0.7"/>
<path d="M1147.81 2896.65C1156.65 2918.18 1163.97 2938.16 1167.41 2955.78C1212.33 3185.51 1435.56 3333.53 1706.02 3445.21C1991.3 3563.01 2462.49 3742.86 2749.97 3493.04C2912.83 3351.5 2954.92 3027.8 2920.74 2713.49C2889.6 2427.18 2797.03 2150.06 2638.36 1997.98C2598.6 1959.87 2545.73 1919.14 2482.98 1883.38C2100.63 1701.53 1782.26 1751.46 1470.44 2107.18C1158.62 2462.9 1134.47 2558.82 1147.81 2896.65Z" fill="url(#paint5_linear_3_6)" fill-opacity="0.2"/>
<path d="M1986.35 3076.17C2320.09 3453.49 3014.19 3581.39 3443.62 3324.9C3873.04 3068.41 3971.42 2705.74 3955.68 2404.51C3939.94 2103.28 3748.25 1492.28 3071.79 1470.06C2395.32 1447.85 2110.35 1801.13 1789.1 2170.77C1664.97 2313.6 1652.61 2698.85 1986.35 3076.17Z" fill="url(#paint6_linear_3_6)"/>
<path d="M1044.44 2441.03C1119.57 1759.75 1435.62 1133.67 1804.33 1186.92C2067.6 1224.93 1756.16 1756.87 2749.96 2252.45C2768.5 2261.7 2786.47 2273.7 2802.48 2286.85C3211.67 2622.88 3815.2 2519.7 3772.84 2813.05C3694.48 3355.71 2797.21 3649.56 2070.1 3229.2C1539.58 2922.49 969.298 3122.31 1044.44 2441.03Z" fill="url(#paint7_linear_3_6)"/>
<path d="M1580.56 2938.98C1604.43 2953.67 1625.75 2967.96 1641.68 2982.81C1849.47 3176.49 2168.01 3155.94 2505.34 3064.12C2861.14 2967.27 3438.26 2792.74 3531.95 2330.55C3585.04 2068.71 3392.41 1716.99 3134.04 1431.61C2898.69 1171.65 2611.55 966.748 2351.44 934.982C2286.27 927.023 2206.74 926.271 2121.41 937.83C1627.31 1043.93 1360.58 1331.47 1319.85 1916.63C1279.11 2501.79 1325.09 2614.74 1580.56 2938.98Z" fill="url(#paint8_linear_3_6)" fill-opacity="0.7"/>
<path d="M1580.56 2938.98C1604.43 2953.67 1625.75 2967.96 1641.68 2982.81C1849.47 3176.49 2168.01 3155.94 2505.34 3064.12C2861.14 2967.27 3438.26 2792.74 3531.95 2330.55C3585.04 2068.71 3392.41 1716.99 3134.04 1431.61C2898.69 1171.65 2611.55 966.748 2351.44 934.982C2286.27 927.023 2206.74 926.271 2121.41 937.83C1627.31 1043.93 1360.58 1331.47 1319.85 1916.63C1279.11 2501.79 1325.09 2614.74 1580.56 2938.98Z" fill="url(#paint9_linear_3_6)" fill-opacity="0.2"/>
<path d="M1160 3019.25C1109.53 3137.52 1200.34 3193.91 1252.06 3207.32C1321.9 3218.35 1502.13 3216.25 1664.33 3119.67C1826.53 3023.08 1909.05 2777.15 1949.91 2660.37C1761.51 2715.13 1427.35 2826.32 1244.55 2928.37C1179.41 2964.73 1173.26 2988.18 1160 3019.25Z" fill="url(#paint10_linear_3_6)" fill-opacity="0.64"/>
<path d="M2476.51 2480.49C2922.86 2313.26 3099.07 2238.65 3235.28 2178.6C3414.47 2099.61 3755.07 1913.3 3597.25 1617.16C3470.99 1380.24 3153.11 1653.42 2992.21 1775.45C2664.68 2023.86 2124.26 2368.83 1886.14 2506.76C1662.87 2636.09 1346.56 2848.94 1244.55 2928.37C1427.35 2826.32 1761.51 2715.13 1949.91 2660.37L2476.51 2480.49Z" fill="url(#paint11_linear_3_6)" fill-opacity="0.64"/>
<path d="M2252.76 2136.26C2543.42 2356.26 3130.44 2832.14 3246.55 2933.96C3399.3 3067.9 3682.57 3349.52 3476.61 3504.72C3311.84 3628.88 3066.86 3291.88 2939.68 3133.44C2680.81 2810.91 2257.36 2299.84 2038.69 2098.72C1820.01 1897.61 1604.88 1643.34 1524.64 1541.35C1676.28 1694.02 1968.18 1916.84 2134.3 2036.53L2252.76 2136.26Z" fill="url(#paint12_linear_3_6)" fill-opacity="0.68"/>
<path d="M1463.05 1438.1C1438.78 1328.65 1535.02 1324.51 1586.18 1336.12C1653.88 1357.09 1822.62 1434.03 1955.98 1574.02C2089.35 1714 2118.76 1932.21 2134.3 2036.53C1968.18 1916.84 1676.28 1694.02 1524.64 1541.35C1470.61 1486.94 1469.42 1466.86 1463.05 1438.1Z" fill="url(#paint13_linear_3_6)" fill-opacity="0.64"/>
<g opacity="0.5">
<path d="M3814.53 1384.11C4391.87 2148.53 4240.21 3236.23 3475.8 3813.57C2711.39 4390.91 1623.69 4239.26 1046.35 3474.85C469.006 2710.44 620.657 1622.73 1385.07 1045.39C2149.48 468.05 3237.19 619.702 3814.53 1384.11Z" fill="black" fill-opacity="0.1"/>
<path d="M3814.53 1384.11C4391.87 2148.53 4240.21 3236.23 3475.8 3813.57C2711.39 4390.91 1623.69 4239.26 1046.35 3474.85C469.006 2710.44 620.657 1622.73 1385.07 1045.39C2149.48 468.05 3237.19 619.702 3814.53 1384.11Z" fill="url(#paint14_radial_3_6)" fill-opacity="0.8"/>
<path d="M3814.53 1384.11C4391.87 2148.53 4240.21 3236.23 3475.8 3813.57C2711.39 4390.91 1623.69 4239.26 1046.35 3474.85C469.006 2710.44 620.657 1622.73 1385.07 1045.39C2149.48 468.05 3237.19 619.702 3814.53 1384.11Z" fill="url(#paint15_radial_3_6)" fill-opacity="0.7"/>
</g>
<g filter="url(#filter0_f_3_6)">
<circle cx="2450.39" cy="2499.51" r="787.201" fill="white"/>
</g>
<g filter="url(#filter1_f_3_6)">
<circle cx="2429.78" cy="2430.91" r="398.558" fill="white"/>
</g>
<defs>
<filter id="filter0_f_3_6" x="744.193" y="793.319" width="3412.39" height="3412.39" filterUnits="userSpaceOnUse" color-interpolation-filters="sRGB">
<feFlood flood-opacity="0" result="BackgroundImageFix"/>
<feBlend mode="normal" in="SourceGraphic" in2="BackgroundImageFix" result="shape"/>
<feGaussianBlur stdDeviation="459.497" result="effect1_foregroundBlur_3_6"/>
</filter>
<filter id="filter1_f_3_6" x="1824.45" y="1825.57" width="1210.66" height="1210.66" filterUnits="userSpaceOnUse" color-interpolation-filters="sRGB">
<feFlood flood-opacity="0" result="BackgroundImageFix"/>
<feBlend mode="normal" in="SourceGraphic" in2="BackgroundImageFix" result="shape"/>
<feGaussianBlur stdDeviation="103.387" result="effect1_foregroundBlur_3_6"/>
</filter>
<radialGradient id="paint0_radial_3_6" cx="0" cy="0" r="1" gradientUnits="userSpaceOnUse" gradientTransform="translate(1104.27 3748.73) rotate(13.9168) scale(2649.54 1898.85)">
<stop stop-color="#F7003F"/>
<stop offset="1" stop-color="#E63663" stop-opacity="0"/>
</radialGradient>
<radialGradient id="paint1_radial_3_6" cx="0" cy="0" r="1" gradientUnits="userSpaceOnUse" gradientTransform="translate(1157.84 1191.02) rotate(118.559) scale(1676.15)">
<stop stop-color="#006679"/>
<stop offset="1" stop-color="#006679" stop-opacity="0"/>
</radialGradient>
<radialGradient id="paint2_radial_3_6" cx="0" cy="0" r="1" gradientUnits="userSpaceOnUse" gradientTransform="translate(3435.27 1398.33) rotate(47.0327) scale(1213.27)">
<stop stop-color="#3D2960"/>
<stop offset="1" stop-color="#3D2960" stop-opacity="0"/>
</radialGradient>
<radialGradient id="paint3_radial_3_6" cx="0" cy="0" r="1" gradientUnits="userSpaceOnUse" gradientTransform="translate(4157.94 2959.15) rotate(130.315) scale(1582.33)">
<stop stop-color="#447AA5"/>
<stop offset="1" stop-color="#447AA5" stop-opacity="0"/>
</radialGradient>
<linearGradient id="paint4_linear_3_6" x1="2494.33" y1="2288.31" x2="1806.44" y2="3516.7" gradientUnits="userSpaceOnUse">
<stop stop-color="#FF0061" stop-opacity="0"/>
<stop offset="0.0461083" stop-color="#FF0061" stop-opacity="0.01"/>
<stop offset="0.0868148" stop-color="#FF0061" stop-opacity="0.0137989"/>
<stop offset="0.124044" stop-color="#FF0061" stop-opacity="0.0317363"/>
<stop offset="0.15972" stop-color="#FF0061" stop-opacity="0.0576443"/>
<stop offset="0.195767" stop-color="#FF0061" stop-opacity="0.0919821"/>
<stop offset="0.23411" stop-color="#FF0161" stop-opacity="0.135209"/>
<stop offset="0.276672" stop-color="#FF0161" stop-opacity="0.187783"/>
<stop offset="0.325379" stop-color="#FF0161" stop-opacity="0.250165"/>
<stop offset="0.382154" stop-color="#FF0262" stop-opacity="0.322813"/>
<stop offset="0.448921" stop-color="#FF0262" stop-opacity="0.406186"/>
<stop offset="0.527606" stop-color="#FF0362" stop-opacity="0.500744"/>
<stop offset="0.620132" stop-color="#FF0363" stop-opacity="0.606945"/>
<stop offset="0.728423" stop-color="#FF0463" stop-opacity="0.725249"/>
<stop offset="0.854405" stop-color="#FF0563" stop-opacity="0.856114"/>
<stop offset="1" stop-color="#FF0564"/>
</linearGradient>
<linearGradient id="paint5_linear_3_6" x1="2916.13" y1="3158.92" x2="2858.23" y2="3149.24" gradientUnits="userSpaceOnUse">
<stop stop-color="white"/>
<stop offset="1" stop-color="white" stop-opacity="0"/>
</linearGradient>
<linearGradient id="paint6_linear_3_6" x1="3985.73" y1="2188.48" x2="2497.35" y2="2466.65" gradientUnits="userSpaceOnUse">
<stop stop-color="#AEDCFF"/>
<stop offset="0.042963" stop-color="#5BAEEC" stop-opacity="0.994781"/>
<stop offset="0.077037" stop-color="#5BAEEC" stop-opacity="0.983153"/>
<stop offset="0.105055" stop-color="#5BAEEC" stop-opacity="0.964571"/>
<stop offset="0.129849" stop-color="#5BAEEC" stop-opacity="0.938488"/>
<stop offset="0.154253" stop-color="#5BAEEC" stop-opacity="0.904355"/>
<stop offset="0.181099" stop-color="#5BAEEC" stop-opacity="0.861626"/>
<stop offset="0.213219" stop-color="#5BAEEC" stop-opacity="0.809755"/>
<stop offset="0.253447" stop-color="#5BAEEC" stop-opacity="0.748194"/>
<stop offset="0.304615" stop-color="#5BAEEC" stop-opacity="0.676396"/>
<stop offset="0.369556" stop-color="#5BAEEC" stop-opacity="0.593814"/>
<stop offset="0.451103" stop-color="#5BAEEC" stop-opacity="0.499901"/>
<stop offset="0.552088" stop-color="#5BAEEC" stop-opacity="0.39411"/>
<stop offset="0.675344" stop-color="#5BAEEC" stop-opacity="0.275894"/>
<stop offset="0.823704" stop-color="#5BAEEC" stop-opacity="0.144707"/>
<stop offset="1" stop-color="#5BAEEC" stop-opacity="0"/>
</linearGradient>
<linearGradient id="paint7_linear_3_6" x1="1486.33" y1="2768.02" x2="1867.51" y2="1302.94" gradientUnits="userSpaceOnUse">
<stop stop-color="#18D0B1" stop-opacity="0"/>
<stop offset="0.0548604" stop-color="#18D0B1" stop-opacity="0.01"/>
<stop offset="0.0983704" stop-color="#18D0B1" stop-opacity="0.0132741"/>
<stop offset="0.133538" stop-color="#18D0B1" stop-opacity="0.0300308"/>
<stop offset="0.163373" stop-color="#18D0B1" stop-opacity="0.0536798"/>
<stop offset="0.190883" stop-color="#18D0B1" stop-opacity="0.0843305"/>
<stop offset="0.219077" stop-color="#18D0B1" stop-opacity="0.122092"/>
<stop offset="0.250963" stop-color="#18D0B1" stop-opacity="0.167075"/>
<stop offset="0.28955" stop-color="#18D0B1" stop-opacity="0.219387"/>
<stop offset="0.337846" stop-color="#18D0B1" stop-opacity="0.279138"/>
<stop offset="0.39886" stop-color="#18D0B1" stop-opacity="0.346439"/>
<stop offset="0.475601" stop-color="#17D0B1" stop-opacity="0.421397"/>
<stop offset="0.571077" stop-color="#17D0B1" stop-opacity="0.504123"/>
<stop offset="0.688296" stop-color="#17D0B1" stop-opacity="0.594726"/>
<stop offset="0.830268" stop-color="#17D0B1" stop-opacity="0.693315"/>
<stop offset="1" stop-color="#17D0B1" stop-opacity="0.8"/>
</linearGradient>
<linearGradient id="paint8_linear_3_6" x1="2365.42" y1="2238.08" x2="3171.35" y2="1804.02" gradientUnits="userSpaceOnUse">
<stop stop-color="#4ABBFF" stop-opacity="0"/>
<stop offset="0.0379715" stop-color="#4ABBFF" stop-opacity="0.03"/>
<stop offset="0.077545" stop-color="#4ABBFF" stop-opacity="0.060455"/>
<stop offset="0.119297" stop-color="#4ABAFF" stop-opacity="0.0746374"/>
<stop offset="0.163803" stop-color="#49B9FE" stop-opacity="0.0957794"/>
<stop offset="0.21164" stop-color="#49B7FE" stop-opacity="0.124624"/>
<stop offset="0.263385" stop-color="#49B6FD" stop-opacity="0.161912"/>
<stop offset="0.319613" stop-color="#48B3FC" stop-opacity="0.208387"/>
<stop offset="0.3809" stop-color="#47B1FB" stop-opacity="0.264792"/>
<stop offset="0.447824" stop-color="#46AEFA" stop-opacity="0.331868"/>
<stop offset="0.520961" stop-color="#45AAF9" stop-opacity="0.410358"/>
<stop offset="0.600886" stop-color="#44A6F7" stop-opacity="0.501004"/>
<stop offset="0.688176" stop-color="#43A1F5" stop-opacity="0.604549"/>
<stop offset="0.783407" stop-color="#429BF3" stop-opacity="0.721735"/>
<stop offset="0.887157" stop-color="#4095F1" stop-opacity="0.853305"/>
<stop offset="1" stop-color="#3E8EEE"/>
</linearGradient>
<linearGradient id="paint9_linear_3_6" x1="2782.54" y1="2954.34" x2="2747.66" y2="2886.36" gradientUnits="userSpaceOnUse">
<stop stop-color="white" stop-opacity="0.5"/>
<stop offset="1" stop-color="white" stop-opacity="0"/>
</linearGradient>
<linearGradient id="paint10_linear_3_6" x1="2073.63" y1="2559.98" x2="1397.33" y2="3707.75" gradientUnits="userSpaceOnUse">
<stop stop-color="#FF5E5E"/>
<stop offset="1" stop-color="#D9D9D9" stop-opacity="0"/>
</linearGradient>
<linearGradient id="paint11_linear_3_6" x1="2884.16" y1="2547.58" x2="2678.82" y2="2057.72" gradientUnits="userSpaceOnUse">
<stop stop-color="#FF5E5E"/>
<stop offset="1" stop-color="#D9D9D9" stop-opacity="0"/>
</linearGradient>
<linearGradient id="paint12_linear_3_6" x1="2131.93" y1="2137.88" x2="2362.99" y2="3745.53" gradientUnits="userSpaceOnUse">
<stop stop-color="#92FF6C"/>
<stop offset="1" stop-color="#D9D9D9" stop-opacity="0"/>
</linearGradient>
<linearGradient id="paint13_linear_3_6" x1="1453.5" y1="1144.49" x2="1686.02" y2="2560.06" gradientUnits="userSpaceOnUse">
<stop stop-color="#339EB5"/>
<stop offset="1" stop-color="#3FB4CD" stop-opacity="0"/>
</linearGradient>
<radialGradient id="paint14_radial_3_6" cx="0" cy="0" r="1" gradientUnits="userSpaceOnUse" gradientTransform="translate(4630.95 1434.35) rotate(-30.8467) scale(1520.13)">
<stop stop-color="white"/>
<stop offset="1" stop-color="white" stop-opacity="0"/>
<stop offset="1" stop-color="white"/>
</radialGradient>
<radialGradient id="paint15_radial_3_6" cx="0" cy="0" r="1" gradientUnits="userSpaceOnUse" gradientTransform="translate(338.063 555.221) rotate(77.1681) scale(1901.04)">
<stop stop-color="white"/>
<stop offset="1" stop-color="white" stop-opacity="0"/>
</radialGradient>
</defs>
</svg>
